<?xml version="1.0" standalone="no"?>
<!DOCTYPE svg PUBLIC "-//W3C//DTD SVG 20010904//EN"
 "http://www.w3.org/TR/2001/REC-SVG-20010904/DTD/svg10.dtd">
<svg version="1.0" xmlns="http://www.w3.org/2000/svg"
 width="794.000000pt" height="632.000000pt" viewBox="0 0 794.000000 632.000000"
 preserveAspectRatio="xMidYMid meet">
<metadata>
Created by potrace 1.16, written by Peter Selinger 2001-2019
</metadata>
<g transform="translate(0.000000,632.000000) scale(0.100000,-0.100000)"
fill="#000000" stroke="none">
<path d="M0 3160 l0 -3160 3970 0 3970 0 0 3160 0 3160 -3970 0 -3970 0 0
-3160z m4530 1339 c102 -11 274 -42 355 -64 28 -7 69 -19 93 -25 l42 -11 0
-179 c0 -99 -2 -180 -4 -180 -2 0 -36 13 -75 30 -104 42 -273 96 -366 115
-192 40 -421 37 -562 -6 -431 -132 -695 -594 -643 -1124 25 -251 113 -451 269
-612 311 -319 752 -391 1294 -208 l127 42 0 -162 0 -163 -62 -21 c-422 -137
-799 -157 -1145 -60 -125 35 -279 107 -379 178 -366 259 -550 660 -531 1159
14 390 136 693 375 931 302 300 689 416 1212 360z m2261 -10 c80 -11 215 -37
300 -57 l154 -37 3 -174 c2 -163 1 -173 -15 -166 -375 146 -798 199 -1033 129
-199 -59 -292 -197 -260 -382 15 -86 38 -130 100 -185 88 -79 202 -127 740
-312 107 -37 233 -87 280 -111 270 -140 399 -332 400 -597 1 -475 -412 -786
-1045 -787 -199 0 -417 31 -707 101 l-168 41 0 194 c0 107 4 194 8 194 5 0 50
-18 101 -40 498 -216 937 -248 1212 -89 127 74 189 168 197 300 13 223 -90
305 -639 504 -505 183 -701 303 -794 485 -119 235 -66 584 118 771 211 215
553 286 1048 218z m-5841 -599 l0 -560 545 0 545 0 0 560 0 560 200 0 200 0
-2 -1287 -3 -1288 -197 -3 -198 -2 0 580 0 580 -545 0 -545 0 0 -580 0 -580
-200 0 -200 0 0 1290 0 1290 200 0 200 0 0 -560z"/>
</g>
</svg>
